:SAMPLES-PER-SECOND 30
:FULLY-SPECIFIED
:DEGREES
612
root  72.3846 38.3905 3.52828 -163.421 84.6397 -162.821
RightUpLeg  -14.2819 -0.735829 3.01542
RightLeg  19.8667 2.39155 0.426827
RightFoot  -2.89182 0.332813 -4.76475
RightToes  4.6566e-010 0 -3.6325e-017
Spine  63.4122 24.6526 -21.6442
Spine1  -92.0616 44.407 46.7025
HEad  -32.8678 31.3336 -26.0389
LeftShoulder1  -5.19266 11.3509 -56.8919
LeftArm  -12.447 -63.7713 -33.7102
LeftForeArm  -10.0146 -15.4855 -4.97166
LeftHand  -1.97974 19.5695 -14.6184
RightShoulder  -4.83864 11.5198 -45.2186
RightArm  162.552 59.0207 101.931
RightForeArm  -40.5028 75.5411 62.1868
RightHand  -8.57539 -23.3291 48.9959
LeftUpLeg  -16.9898 3.42623 6.42488
LeftLeg  7.65181 -20.0363 -1.70988
LeftFoot  7.56448 0.942192 -5.90376
LeftToes  -4.59298e-010 2.08438e-011 -1.27151e-011
613
root  72.8676 38.3849 3.2723 -163.088 85.5229 -162.891
RightUpLeg  -14.3643 1.94423 2.52565
RightLeg  20.7557 0.870847 -0.389221
RightFoot  -3.97236 0.248004 -4.2628
RightToes  4.6566e-010 0 -3.6325e-017
Spine  66.41 26.338 -22.0374
Spine1  -103.515 48.2239 42.7021
HEad  -29.7861 32.5076 -22.0456
LeftShoulder1  -5.45969 11.7926 -56.5132
LeftArm  -11.3887 -59.0685 -43.9497
LeftForeArm  -9.55536 -14.5497 -4.15182
LeftHand  -3.20329 22.579 -16.4802
RightShoulder  -4.78274 10.8546 -46.7095
RightArm  174.41 60.2451 114.829
RightForeArm  0.728713 77.2842 107.84
RightHand  -8.24765 -24.5279 44.5392
LeftUpLeg  -17.4625 2.62556 6.51867
LeftLeg  9.80417 -18.1327 -2.67646
LeftFoot  6.03303 0.862581 -5.88593
LeftToes  -4.59298e-010 2.08438e-011 -1.27151e-011
614
root  73.207 38.3559 2.85948 -165.797 87.2399 -165.328
RightUpLeg  -14.1303 2.62958 1.24968
RightLeg  21.9642 1.84161 0.138527
RightFoot  -5.13105 0.171914 -3.80776
RightToes  4.6566e-010 0 -3.6325e-017
Spine  66.709 24.9683 -22.4057
Spine1  -99.3561 44.4295 43.8114
HEad  -31.3305 34.4981 -20.9062
LeftShoulder1  -5.05505 10.3958 -63.9065
LeftArm  -14.4613 -59.0337 -39.3179
LeftForeArm  4.48232 -23.1132 -4.58202
LeftHand  0.187826 10.1373 -30.0592
RightShoulder  -4.83739 13.5219 -41.4709
RightArm  172.918 63.684 109.416
RightForeArm  1.96211 76.6293 111.778
RightHand  -6.97307 -21.1052 45.8199
LeftUpLeg  -17.0946 1.85067 5.94102
LeftLeg  11.5365 -15.9375 -3.11816
LeftFoot  5.13381 0.756035 -5.43559
LeftToes  -4.59298e-010 2.08438e-011 -1.27151e-011
615
root  73.5566 38.4498 2.48222 -140.767 88.6202 -140.073
RightUpLeg  -12.9303 2.16273 0.93825
RightLeg  21.0654 3.82384 0.600265
RightFoot  -5.297 0.137103 -3.2948
RightToes  4.6566e-010 0 -3.6325e-017
Spine  78.896 21.8116 -12.7785
Spine1  -134.553 40.7968 19.6643
HEad  -24.6826 35.4539 -14.1974
LeftShoulder1  -4.01273 7.85148 -76.0542
LeftArm  -12.6013 -51.6715 -50.6892
LeftForeArm  78.9528 -26.026 -2.04676
LeftHand  35.4157 -44.2746 -69.3611
RightShoulder  -5.13507 17.4003 -37.3794
RightArm  165.313 55.4437 108.733
RightForeArm  7.88314 72.6729 138.048
RightHand  -5.90196 -19.8223 42.5272
LeftUpLeg  -16.2618 2.43917 5.63709
LeftLeg  12.1353 -14.8453 -3.16539
LeftFoot  4.77967 0.542526 -4.03964
LeftToes  -4.59298e-010 2.08438e-011 -1.27151e-011
616
root  73.9053 38.5513 2.16157 -66.1328 89.1656 -65.648
RightUpLeg  -12.237 1.63556 0.515073
RightLeg  20.1186 5.9135 1.05255
RightFoot  -5.17705 0.13039 -3.13945
RightToes  4.6566e-010 0 -3.6325e-017
Spine  80.9388 15.449 -13.0444
Spine1  -150.254 35.8848 14.8757
HEad  -18.9461 35.721 -5.3452
LeftShoulder1  -5.08256 10.535 -61.3397
LeftArm  -29.7577 -38.7187 -70.004
LeftForeArm  126.929 -25.7444 -1.53317
LeftHand  140.01 -77.7968 -146.181
RightShoulder  -4.92889 19.9498 -33.3301
RightArm  163.218 44.057 114.562
RightForeArm  25.0429 68.079 147.123
RightHand  -3.54904 -15.7432 36.7161
LeftUpLeg  -15.6122 2.73832 5.27077
LeftLeg  12.1608 -13.5035 -2.86043
LeftFoot  3.85815 0.499273 -3.91362
LeftToes  -4.59298e-010 2.08438e-011 -1.27151e-011
617
root  74.2908 38.6346 1.88716 -7.45959 88.2896 -7.69415
RightUpLeg  -12.1004 2.54219 -0.0130096
RightLeg  19.3179 6.35635 0.621626
RightFoot  -5.39097 0.0946704 -2.51
RightToes  4.6566e-010 0 -3.6325e-017
Spine  81.6568 14.7598 -10.506
Spine1  -156.956 31.5471 10.3746
HEad  -16.2863 35.4381 -2.52131
LeftShoulder1  -5.07584 10.6246 -60.9738
LeftArm  -36.7354 -30.0838 -77.9957
LeftForeArm  142.523 -33.4548 -3.93132
LeftHand  -144.685 -68.6818 155.073
RightShoulder  -5.41362 17.7373 -38.3868
RightArm  170.432 39.9333 125.405
RightForeArm  61.8267 61.6546 155.277
RightHand  -0.738914 -6.19978 24.8977
LeftUpLeg  -15.4625 3.90786 4.57631
LeftLeg  12.0283 -13.4922 -2.92748
LeftFoot  3.463 0.381327 -3.10354
LeftToes  -4.59298e-010 2.08438e-011 -1.27151e-011
618
root  74.6418 38.7303 1.68026 0.798279 87.9383 0.371857
RightUpLeg  -11.3514 3.58069 -0.551305
RightLeg  18.4886 5.94448 -0.0786477
RightFoot  -5.56893 0.0222648 -1.21267
RightToes  4.6566e-010 0 -3.6325e-017
Spine  82.2502 13.3392 -11.5006
Spine1  -160.487 30.2812 9.94349
HEad  -14.1609 35.4957 1.63002
LeftShoulder1  -5.21812 11.2896 -57.4894
LeftArm  -41.5263 -21.6779 -87.4098
LeftForeArm  152.125 -41.0358 -6.00428
LeftHand  -135.137 -63.353 150.641
RightShoulder  -5.49456 15.6866 -41.7298
RightArm  169.973 36.9913 133.481
RightForeArm  86.1142 61.2563 155.419
RightHand  0.917998 6.39185 6.28489
LeftUpLeg  -14.675 4.85787 3.85056
LeftLeg  11.3438 -14.0744 -3.00159
LeftFoot  3.62124 0.307742 -2.51308
LeftToes  -4.59298e-010 2.08438e-011 -1.27151e-011
